<svg width="50" height="50" viewBox="0 0 50 50" fill="none" xmlns="http://www.w3.org/2000/svg">
<path d="M45.3125 1.5625H4.6875C2.96875 1.5625 1.5625 2.96875 1.5625 4.6875V45.3125C1.5625 47.0313 2.96875 48.4375 4.6875 48.4375H45.3125C47.0313 48.4375 48.4375 47.0313 48.4375 45.3125V4.6875C48.4375 2.96875 47.0313 1.5625 45.3125 1.5625Z" fill="#699635"/>
<path d="M42.8516 1.5625H4.49219C2.89063 1.5625 1.5625 2.89063 1.5625 4.49219V42.7344C1.5625 44.375 2.89063 45.6641 4.49219 45.6641H42.8125C44.4531 45.6641 45.7422 44.3359 45.7422 42.7344V4.49219C45.8203 2.89063 44.4531 1.5625 42.8516 1.5625Z" fill="#8EB219"/>
<path d="M14.4527 18.5156L23.8277 9.14062C24.4527 8.4375 25.5465 8.4375 26.1715 9.14062L35.5465 18.5156C36.4449 19.5313 35.7027 21.0938 34.3746 21.0938H28.9059C28.4762 21.0938 28.1246 21.4453 28.1246 21.875V39.8437C28.1246 40.7031 27.4215 41.4062 26.5621 41.4062H23.4371C22.5777 41.4062 21.8746 40.7031 21.8746 39.8437V21.875C21.8746 21.4453 21.5231 21.0938 21.0934 21.0938H15.6246C14.2965 21.0938 13.5543 19.5313 14.4527 18.5156Z" fill="#FAFAFA"/>
<path opacity="0.5" d="M15.5078 5.0393C15.5078 4.14086 14.8828 3.86742 11.2891 3.98461C8.28125 4.1018 6.79687 4.45336 5.89844 5.54711C5 6.64086 4.76563 8.86742 4.72656 11.5237C4.72656 13.3987 4.72656 15.1565 5.70312 15.1565C7.03125 15.1565 7.03125 12.0705 8.125 10.3518C10.2344 6.95336 15.5078 6.21117 15.5078 5.0393Z" fill="#E2FF84"/>
</svg>
