<svg width="37" height="37" viewBox="0 0 37 37" fill="none" xmlns="http://www.w3.org/2000/svg">
<g clip-path="url(#clip0_22_355)">
<path d="M25.4128 18.4628L34.8956 10.2242V26.6075L25.4128 18.4628ZM13.1936 19.858L16.5236 22.7487C17.0462 23.1927 17.7276 23.4609 18.4723 23.4609H18.4985H18.5185C19.2647 23.4609 19.9461 23.1911 20.4749 22.744L20.4702 22.7471L23.8002 19.8565L33.9228 28.55H3.07562L13.1936 19.858ZM3.06175 8.27088H33.9413L19.109 21.153C18.9422 21.285 18.7358 21.3567 18.5231 21.3565H18.5015H18.4815C18.2681 21.3568 18.061 21.2845 17.8941 21.1515L17.8957 21.153L3.06175 8.27088ZM2.10437 10.2226L11.5856 18.4613L2.10437 26.6013V10.2226ZM35.4044 6.45942C35.0344 6.27442 34.5996 6.1665 34.1387 6.1665H2.86596C2.41912 6.16661 1.97843 6.27058 1.57867 6.47021L1.59562 6.4625C1.11705 6.69855 0.714019 7.06372 0.432059 7.51677C0.150098 7.96981 0.000442995 8.49267 0 9.0263L0 27.7915C0.000816164 28.5509 0.302864 29.279 0.83987 29.816C1.37688 30.353 2.10498 30.6551 2.86442 30.6559H34.134C34.8935 30.6551 35.6216 30.353 36.1586 29.816C36.6956 29.279 36.9976 28.5509 36.9985 27.7915V9.0263C36.9985 7.9055 36.3525 6.93425 35.4121 6.46713L35.3951 6.45942H35.4044Z" fill="white"/>
</g>
<defs>
<clipPath id="clip0_22_355">
<rect width="37" height="37" fill="white"/>
</clipPath>
</defs>
</svg>
