<svg width="37" height="37" viewBox="0 0 37 37" fill="none" xmlns="http://www.w3.org/2000/svg">
<path d="M27.8299 9.16403C26.5685 7.89624 25.066 6.89105 23.4101 6.20707C21.7541 5.5231 19.9779 5.17404 18.185 5.18026C10.6727 5.18026 4.55001 11.2723 4.55001 18.747C4.55001 21.1427 5.18292 23.47 6.36617 25.5235L4.43994 32.5602L11.6633 30.671C13.6583 31.7525 15.901 32.3274 18.185 32.3274C25.6973 32.3274 31.8199 26.2354 31.8199 18.7607C31.8199 15.1329 30.4028 11.7241 27.8299 9.16403ZM18.185 30.0275C16.1487 30.0275 14.1536 29.4799 12.4063 28.4532L11.9935 28.2068L7.70078 29.3293L8.84275 25.1676L8.56758 24.7432C7.43626 22.9457 6.83554 20.8679 6.83397 18.747C6.83397 12.5318 11.9247 7.46648 18.1712 7.46648C21.1981 7.46648 24.0462 8.64382 26.1788 10.7795C27.2348 11.8253 28.0716 13.0693 28.6408 14.4394C29.21 15.8094 29.5002 17.2782 29.4947 18.7607C29.5222 24.9759 24.4315 30.0275 18.185 30.0275ZM24.4039 21.5945C24.06 21.4302 22.3814 20.6088 22.0787 20.4856C21.7623 20.3761 21.5421 20.3214 21.3082 20.6499C21.0743 20.9922 20.4277 21.7588 20.235 21.9778C20.0424 22.2106 19.836 22.2379 19.4921 22.06C19.1481 21.8957 18.0474 21.5261 16.7541 20.3761C15.7359 19.4726 15.0617 18.3637 14.8553 18.0214C14.6627 17.6792 14.8278 17.5012 15.0067 17.3232C15.158 17.1727 15.3507 16.9262 15.5158 16.7346C15.6809 16.5429 15.7497 16.3923 15.8597 16.1733C15.9698 15.9406 15.9148 15.7489 15.8322 15.5846C15.7497 15.4203 15.0617 13.7502 14.7866 13.0657C14.5114 12.4086 14.2224 12.4907 14.0161 12.477H13.3556C13.1217 12.477 12.764 12.5591 12.4476 12.9014C12.1449 13.2436 11.2643 14.065 11.2643 15.7352C11.2643 17.4054 12.4888 19.0208 12.6539 19.2398C12.819 19.4726 15.0617 22.8951 18.4739 24.3599C19.2857 24.7158 19.9186 24.9212 20.4139 25.0718C21.2257 25.3319 21.9686 25.2908 22.5603 25.2087C23.2207 25.1128 24.5828 24.3873 24.858 23.5932C25.1469 22.7992 25.1469 22.1284 25.0506 21.9778C24.9543 21.8272 24.7479 21.7588 24.4039 21.5945Z" fill="white"/>
</svg>
