<svg width="37" height="37" viewBox="0 0 37 37" fill="none" xmlns="http://www.w3.org/2000/svg">
<path d="M27.75 4.625C28.9766 4.625 30.153 5.11228 31.0204 5.97963C31.8877 6.84699 32.375 8.02337 32.375 9.25V27.75C32.375 28.9766 31.8877 30.153 31.0204 31.0204C30.153 31.8877 28.9766 32.375 27.75 32.375H9.25C8.02337 32.375 6.84699 31.8877 5.97963 31.0204C5.11228 30.153 4.625 28.9766 4.625 27.75V9.25C4.625 8.02337 5.11228 6.84699 5.97963 5.97963C6.84699 5.11228 8.02337 4.625 9.25 4.625H27.75ZM27.75 7.70833H9.25C8.84112 7.70833 8.449 7.87076 8.15988 8.15988C7.87076 8.449 7.70833 8.84112 7.70833 9.25V27.75C7.70833 28.1589 7.87076 28.551 8.15988 28.8401C8.449 29.1292 8.84112 29.2917 9.25 29.2917H27.75C28.1589 29.2917 28.551 29.1292 28.8401 28.8401C29.1292 28.551 29.2917 28.1589 29.2917 27.75V9.25C29.2917 8.84112 29.1292 8.449 28.8401 8.15988C28.551 7.87076 28.1589 7.70833 27.75 7.70833ZM12.3333 15.4167C12.7109 15.4167 13.0754 15.5553 13.3576 15.8063C13.6398 16.0572 13.82 16.4029 13.8642 16.778L13.875 16.9583V24.6667C13.8746 25.0596 13.7241 25.4375 13.4544 25.7233C13.1846 26.009 12.8159 26.1809 12.4237 26.204C12.0314 26.227 11.6452 26.0994 11.3438 25.8472C11.0425 25.595 10.8489 25.2372 10.8025 24.847L10.7917 24.6667V16.9583C10.7917 16.5495 10.9541 16.1573 11.2432 15.8682C11.5323 15.5791 11.9245 15.4167 12.3333 15.4167ZM16.9583 13.875C17.3194 13.8749 17.669 14.0016 17.9462 14.2329C18.2235 14.4642 18.4107 14.7855 18.4753 15.1407C18.7856 14.9608 19.1063 14.7997 19.4358 14.6582C20.4641 14.2188 22.0042 13.9767 23.3948 14.413C24.124 14.6443 24.8563 15.076 25.399 15.8113C25.8846 16.4665 26.1467 17.2636 26.1991 18.1593L26.2083 18.5V24.6667C26.2079 25.0596 26.0574 25.4375 25.7877 25.7233C25.5179 26.009 25.1493 26.1809 24.757 26.204C24.3648 26.227 23.9785 26.0994 23.6772 25.8472C23.3759 25.595 23.1822 25.2372 23.1358 24.847L23.125 24.6667V18.5C23.125 17.9912 23.0017 17.7538 22.9215 17.6444C22.8064 17.5012 22.6479 17.3995 22.4698 17.3545C21.9333 17.185 21.1609 17.2744 20.6475 17.4933C19.8767 17.8232 19.1706 18.3412 18.6896 18.8207L18.5 19.0242V24.6667C18.4996 25.0596 18.3491 25.4375 18.0794 25.7233C17.8096 26.009 17.4409 26.1809 17.0487 26.204C16.6564 26.227 16.2702 26.0994 15.9688 25.8472C15.6675 25.595 15.4739 25.2372 15.4275 24.847L15.4167 24.6667V15.4167C15.4167 15.0078 15.5791 14.6157 15.8682 14.3265C16.1573 14.0374 16.5495 13.875 16.9583 13.875ZM12.3333 10.7917C12.7422 10.7917 13.1343 10.9541 13.4235 11.2432C13.7126 11.5323 13.875 11.9245 13.875 12.3333C13.875 12.7422 13.7126 13.1343 13.4235 13.4235C13.1343 13.7126 12.7422 13.875 12.3333 13.875C11.9245 13.875 11.5323 13.7126 11.2432 13.4235C10.9541 13.1343 10.7917 12.7422 10.7917 12.3333C10.7917 11.9245 10.9541 11.5323 11.2432 11.2432C11.5323 10.9541 11.9245 10.7917 12.3333 10.7917Z" fill="white"/>
</svg>
