<svg width="89" height="74" viewBox="0 0 89 74" fill="none" xmlns="http://www.w3.org/2000/svg">
<path d="M52.2812 58H23.4375C20.3333 58 17.5104 57.4167 14.9688 56.25C12.4271 55.0833 10.25 53.4896 8.4375 51.4688C6.64583 49.4479 5.26042 47.0729 4.28125 44.3438C3.30208 41.6146 2.8125 38.6979 2.8125 35.5938C2.8125 32.5104 3.30208 29.6146 4.28125 26.9062C5.26042 24.1771 6.64583 21.8021 8.4375 19.7812C10.25 17.7396 12.4271 16.1354 14.9688 14.9688C17.5104 13.7812 20.3333 13.1875 23.4375 13.1875H52.2812V19.5938H23.4375C21.2292 19.5938 19.2396 20.0208 17.4688 20.875C15.7188 21.7083 14.2292 22.8542 13 24.3125C11.7917 25.75 10.8542 27.4375 10.1875 29.375C9.54167 31.3125 9.21875 33.3854 9.21875 35.5938C9.21875 37.8021 9.54167 39.8854 10.1875 41.8438C10.8542 43.7812 11.7917 45.4792 13 46.9375C14.2292 48.375 15.7188 49.5104 17.4688 50.3438C19.2396 51.1771 21.2292 51.5938 23.4375 51.5938H52.2812V58Z" fill="white"/>
<path d="M83.3125 58H76.9062V45.1875H41.1562V38.8125H76.9062V19.5938H53.9375C51.75 19.5938 49.6875 20.0208 47.75 20.875C45.8125 21.7083 44.125 22.8542 42.6875 24.3125C41.25 25.75 40.1042 27.4375 39.25 29.375C38.4167 31.3125 38 33.3854 38 35.5938V58H31.5938V35.5938C31.5938 33.5312 31.8542 31.5521 32.375 29.6562C32.9167 27.7396 33.6667 25.9583 34.625 24.3125C35.6042 22.6458 36.7708 21.1354 38.125 19.7812C39.5 18.4062 41.0104 17.2292 42.6562 16.25C44.3229 15.2708 46.1042 14.5208 48 14C49.8958 13.4583 51.875 13.1875 53.9375 13.1875H83.3125V58Z" fill="white"/>
</svg>
