<svg width="25" height="25" viewBox="0 0 25 25" fill="none" xmlns="http://www.w3.org/2000/svg">
<g clip-path="url(#clip0_4_317)">
<path d="M24.0234 10.4688C23.0859 4.96094 18.2812 0.78125 12.5 0.78125C6.71875 0.78125 1.91406 4.96094 0.976562 10.4688L12.5 4.6875L24.0234 10.4688ZM0.976562 14.5312C1.91406 20.0391 6.71875 24.2188 12.5 24.2188C18.2812 24.2188 23.0859 20.0391 24.0234 14.5312L12.5 20.3125L0.976562 14.5312Z" fill="#699635"/>
<path d="M12.5 4.6875L0.976562 10.4687C0.859375 11.1328 0.78125 11.7969 0.78125 12.5C0.78125 13.2031 0.859375 13.8672 0.976562 14.5312L12.5 20.3125L24.0234 14.5312C24.1406 13.8672 24.2188 13.2031 24.2188 12.5C24.2188 11.7969 24.1406 11.1328 24.0234 10.4687L12.5 4.6875Z" fill="#FFE62E"/>
<path d="M10.1562 11.0938C8.90625 11.0938 7.73438 11.3672 6.67969 11.8359C6.64063 12.0703 6.64062 12.2656 6.64062 12.5C6.64062 15.7422 9.25781 18.3594 12.5 18.3594C14.6875 18.3594 16.6016 17.1484 17.6172 15.3906C16.1719 12.8516 13.3594 11.0938 10.1562 11.0938Z" fill="#428BC1"/>
<path d="M18.2812 13.4375C18.3203 13.125 18.3594 12.8125 18.3594 12.5C18.3594 9.25781 15.7422 6.64062 12.5 6.64062C10.1953 6.64062 8.20312 7.96875 7.22656 9.92188C8.16406 9.64844 9.14062 9.49219 10.1562 9.49219C13.4766 9.49219 16.4062 11.0547 18.2812 13.4375Z" fill="#428BC1"/>
<path d="M10.1562 9.49219C9.14062 9.49219 8.16406 9.64844 7.22656 9.92188C6.95312 10.5078 6.75781 11.1328 6.67969 11.8359C7.73437 11.3672 8.90625 11.0938 10.1562 11.0938C13.3594 11.0938 16.1719 12.8125 17.6172 15.3516C17.9687 14.7656 18.1641 14.1016 18.2812 13.4375C16.4062 11.0547 13.4766 9.49219 10.1562 9.49219Z" fill="white"/>
<path d="M8.59375 12.8906C8.80949 12.8906 8.98438 12.7157 8.98438 12.5C8.98438 12.2843 8.80949 12.1094 8.59375 12.1094C8.37801 12.1094 8.20312 12.2843 8.20312 12.5C8.20312 12.7157 8.37801 12.8906 8.59375 12.8906Z" fill="white"/>
<path d="M10.1562 15.2344C10.372 15.2344 10.5469 15.0595 10.5469 14.8438C10.5469 14.628 10.372 14.4531 10.1562 14.4531C9.94051 14.4531 9.76562 14.628 9.76562 14.8438C9.76562 15.0595 9.94051 15.2344 10.1562 15.2344Z" fill="white"/>
<path d="M12.5 15.2344C12.7157 15.2344 12.8906 15.0595 12.8906 14.8438C12.8906 14.628 12.7157 14.4531 12.5 14.4531C12.2843 14.4531 12.1094 14.628 12.1094 14.8438C12.1094 15.0595 12.2843 15.2344 12.5 15.2344Z" fill="white"/>
<path d="M12.5 16.7969C12.7157 16.7969 12.8906 16.622 12.8906 16.4062C12.8906 16.1905 12.7157 16.0156 12.5 16.0156C12.2843 16.0156 12.1094 16.1905 12.1094 16.4062C12.1094 16.622 12.2843 16.7969 12.5 16.7969Z" fill="white"/>
<path d="M15.625 15.2344C15.8407 15.2344 16.0156 15.0595 16.0156 14.8438C16.0156 14.628 15.8407 14.4531 15.625 14.4531C15.4093 14.4531 15.2344 14.628 15.2344 14.8438C15.2344 15.0595 15.4093 15.2344 15.625 15.2344Z" fill="white"/>
<path d="M15.625 16.7969C15.8407 16.7969 16.0156 16.622 16.0156 16.4062C16.0156 16.1905 15.8407 16.0156 15.625 16.0156C15.4093 16.0156 15.2344 16.1905 15.2344 16.4062C15.2344 16.622 15.4093 16.7969 15.625 16.7969Z" fill="white"/>
<path d="M14.0625 16.0156C14.2782 16.0156 14.4531 15.8407 14.4531 15.625C14.4531 15.4093 14.2782 15.2344 14.0625 15.2344C13.8468 15.2344 13.6719 15.4093 13.6719 15.625C13.6719 15.8407 13.8468 16.0156 14.0625 16.0156Z" fill="white"/>
<path d="M8.59375 14.4531C8.80949 14.4531 8.98438 14.2782 8.98438 14.0625C8.98438 13.8468 8.80949 13.6719 8.59375 13.6719C8.37801 13.6719 8.20312 13.8468 8.20312 14.0625C8.20312 14.2782 8.37801 14.4531 8.59375 14.4531Z" fill="white"/>
</g>
<defs>
<clipPath id="clip0_4_317">
<rect width="25" height="25" fill="white"/>
</clipPath>
</defs>
</svg>
