<svg width="23" height="23" viewBox="0 0 23 23" fill="none" xmlns="http://www.w3.org/2000/svg">
<path d="M11.5007 19.375C11.7763 19.375 12.0422 19.4762 12.2481 19.6593C12.454 19.8424 12.5856 20.0947 12.6178 20.3684L12.6257 20.5V21.625C12.6254 21.9117 12.5156 22.1875 12.3188 22.396C12.1219 22.6045 11.8529 22.73 11.5666 22.7468C11.2804 22.7636 10.9985 22.6705 10.7786 22.4865C10.5588 22.3024 10.4174 22.0414 10.3836 21.7566L10.3757 21.625V20.5C10.3757 20.2016 10.4942 19.9155 10.7052 19.7045C10.9162 19.4935 11.2023 19.375 11.5007 19.375ZM18.6028 17.0238L18.7086 17.1171L19.4961 17.9046C19.6978 18.1071 19.815 18.3787 19.8237 18.6644C19.8324 18.9501 19.7321 19.2284 19.5431 19.4428C19.354 19.6572 19.0905 19.7916 18.8059 19.8187C18.5214 19.8458 18.2372 19.7636 18.0111 19.5888L17.9053 19.4954L17.1178 18.7079C16.9237 18.5141 16.8071 18.256 16.7898 17.9823C16.7726 17.7085 16.8561 17.4379 17.0244 17.2213C17.1927 17.0047 17.4344 16.8571 17.704 16.8062C17.9735 16.7553 18.2524 16.8047 18.4881 16.945L18.6028 17.0238ZM5.88358 17.1171C6.07728 17.3108 6.19364 17.5686 6.21083 17.842C6.22802 18.1154 6.14487 18.3857 5.97696 18.6021L5.88358 18.7079L5.09608 19.4954C4.89363 19.6971 4.62197 19.8143 4.33627 19.823C4.05058 19.8317 3.77228 19.7314 3.55789 19.5423C3.34351 19.3533 3.20911 19.0898 3.18201 18.8052C3.1549 18.5207 3.23712 18.2365 3.41196 18.0104L3.50533 17.9046L4.29283 17.1171C4.5038 16.9062 4.7899 16.7877 5.08821 16.7877C5.38652 16.7877 5.67261 16.9062 5.88358 17.1171ZM2.50071 10.375C2.78745 10.3753 3.06324 10.4851 3.27175 10.682C3.48025 10.8788 3.60572 11.1478 3.62252 11.4341C3.63933 11.7203 3.5462 12.0022 3.36216 12.2221C3.17812 12.4419 2.91706 12.5833 2.63233 12.6171L2.50071 12.625H1.37571C1.08897 12.6247 0.813171 12.5149 0.604667 12.318C0.396164 12.1212 0.270692 11.8522 0.253888 11.5659C0.237084 11.2797 0.330216 10.9978 0.514255 10.7779C0.698294 10.5581 0.959349 10.4167 1.24408 10.3829L1.37571 10.375H2.50071ZM21.6257 10.375C21.9124 10.3753 22.1882 10.4851 22.3967 10.682C22.6052 10.8788 22.7307 11.1478 22.7475 11.4341C22.7643 11.7203 22.6712 12.0022 22.4872 12.2221C22.3031 12.4419 22.0421 12.5833 21.7573 12.6171L21.6257 12.625H20.5007C20.214 12.6247 19.9382 12.5149 19.7297 12.318C19.5212 12.1212 19.3957 11.8522 19.3789 11.5659C19.3621 11.2797 19.4552 10.9978 19.6393 10.7779C19.8233 10.5581 20.0843 10.4167 20.3691 10.3829L20.5007 10.375H21.6257ZM4.99033 3.41125L5.09608 3.50463L5.88358 4.29212C6.08535 4.49458 6.20249 4.76624 6.21121 5.05193C6.21994 5.33763 6.11959 5.61593 5.93055 5.83031C5.74151 6.0447 5.47796 6.17909 5.19342 6.2062C4.90889 6.2333 4.6247 6.15109 4.39858 5.97625L4.29283 5.88287L3.50533 5.09538C3.31193 4.90151 3.19588 4.64377 3.17893 4.37046C3.16198 4.09715 3.2453 3.82704 3.41326 3.61077C3.58123 3.3945 3.82231 3.24692 4.09131 3.19569C4.36031 3.14446 4.63876 3.1931 4.87446 3.3325L4.99033 3.41125ZM19.4961 3.50463C19.6898 3.69834 19.8061 3.95608 19.8233 4.22948C19.8405 4.50289 19.7574 4.77317 19.5895 4.98962L19.4961 5.09538L18.7086 5.88287C18.5061 6.08464 18.2345 6.20178 17.9488 6.21051C17.6631 6.21923 17.3848 6.11888 17.1704 5.92985C16.956 5.74081 16.8216 5.47725 16.7945 5.19272C16.7674 4.90818 16.8496 4.62399 17.0245 4.39787L17.1178 4.29212L17.9053 3.50463C18.1163 3.29372 18.4024 3.17524 18.7007 3.17524C18.999 3.17524 19.2851 3.29372 19.4961 3.50463ZM11.5007 0.25C11.7763 0.250036 12.0422 0.351201 12.2481 0.534305C12.454 0.717409 12.5856 0.969717 12.6178 1.24337L12.6257 1.375V2.5C12.6254 2.78674 12.5156 3.06254 12.3188 3.27104C12.1219 3.47954 11.8529 3.60501 11.5666 3.62182C11.2804 3.63862 10.9985 3.54549 10.7786 3.36145C10.5588 3.17741 10.4174 2.91636 10.3836 2.63163L10.3757 2.5V1.375C10.3757 1.07663 10.4942 0.790483 10.7052 0.579505C10.9162 0.368526 11.2023 0.25 11.5007 0.25ZM11.5007 5.875C12.6028 5.87494 13.6807 6.19865 14.6004 6.80594C15.5202 7.41322 16.2412 8.27732 16.6741 9.29091C17.1069 10.3045 17.2325 11.4229 17.0351 12.5072C16.8378 13.5915 16.3262 14.594 15.564 15.3901C14.8018 16.1862 13.8225 16.7408 12.7478 16.9851C11.6731 17.2294 10.5503 17.1526 9.51883 16.7642C8.4874 16.3758 7.59278 15.693 6.9461 14.8005C6.29942 13.908 5.92916 12.8452 5.88133 11.7441L5.87571 11.5L5.88133 11.2559C5.94424 9.80772 6.56377 8.43975 7.61071 7.43724C8.65765 6.43473 10.0512 5.87508 11.5007 5.875Z" fill="white"/>
</svg>
